<?xml version="1.0" encoding="UTF-8" standalone="no"?>
<svg
   xmlns:dc="http://purl.org/dc/elements/1.1/"
   xmlns:cc="http://creativecommons.org/ns#"
   xmlns:rdf="http://www.w3.org/1999/02/22-rdf-syntax-ns#"
   xmlns:svg="http://www.w3.org/2000/svg"
   xmlns="http://www.w3.org/2000/svg"
   viewBox="0 0 217.33333 36"
   height="36"
   width="217.33333"
   xml:space="preserve"
   id="svg2"
   version="1.1"><metadata
     id="metadata8"><rdf:RDF><cc:Work
         rdf:about=""><dc:format>image/svg+xml</dc:format><dc:type
           rdf:resource="http://purl.org/dc/dcmitype/StillImage" /></cc:Work></rdf:RDF></metadata><defs
     id="defs6" /><g
     transform="matrix(1.3333333,0,0,-1.3333333,0,36)"
     id="g10"><g
       transform="scale(0.1)"
       id="g12"><path
         id="path14"
         style="fill:#00274c;fill-opacity:1;fill-rule:nonzero;stroke:none"
         d="m 436.52,10.0781 h 3.75 v 259.922 h -3.75 z" /><path
         id="path16"
         style="fill:#ffcb05;fill-opacity:1;fill-rule:nonzero;stroke:none"
         d="M 181.762,55.4297 107.301,157.148 V 83.1602 h 29.578 V 10.0781 H 0 V 83.1602 H 27.7305 V 196.949 H 0 V 270 H 107.539 L 181.762,167.539 255.941,270 h 107.5 V 196.949 H 335.699 V 83.1602 h 27.742 V 10.0781 H 226.559 v 73.0821 h 29.57 v 73.9878 z" /><path
         id="path18"
         style="fill:#00274c;fill-opacity:1;fill-rule:nonzero;stroke:none"
         d="m 1539.65,10.1602 v 2.9296 c 3.75,0.2696 6.64,0.5391 6.64,3.5899 0,1.0898 -0.35,2.2695 -0.67,3.2812 l -1.64,5.5899 h -19.37 l -1.72,-4.7305 c -0.39,-1.1719 -0.7,-2.2695 -0.7,-3.4414 0,-3.8984 4.14,-4.1406 7.46,-4.2891 v -2.9296 h -22.66 v 2.9296 c 5.78,0.2696 7.66,1.3985 9.77,7.1797 l 14.88,40.8203 -0.86,1.3711 c 6.37,2.0704 8.17,3.0508 10.9,5.0391 1.09,-3.7109 1.25,-4.2187 2.46,-8.1211 l 12.19,-37.3906 c 2.19,-6.6367 3.2,-8.2774 9.02,-8.8985 v -2.9296 z m -4.96,44.1406 -8.09,-22.8203 h 15.82 z m -191.6,-31.961 c -2.43,-3.9414 -8.29,-13.66792 -23.48,-13.66792 -16.56,0 -27.31,12.18752 -27.31,28.27732 0,14.8906 9.11,29.5313 27.66,29.5313 9.81,0 15,-4.1016 18.2,-6.6016 l 3.72,3.4024 0.31,-16.6797 -2.42,-0.4727 c -0.98,3.2109 -2.39,5.7813 -5.94,9.6524 -1.72,1.7968 -5.78,5.4296 -11.53,5.4296 -9.96,0 -17.77,-8.1211 -17.77,-22.4218 0,-12.0703 6.45,-23.4375 19.14,-23.4375 9.65,0 13.28,5.3476 16.13,9.4882 z m 9.25,-12.1796 v 2.9296 c 6.25,0.5391 6.33,1.8711 6.33,7.1797 0.08,1.961 0.08,3.9102 0.08,5.8594 v 23.0508 c 0,3.5898 0,7.1914 -0.23,8.9101 -0.32,3.2813 -1.88,3.711 -6.14,4.1407 v 2.9297 h 23.56 v -2.9297 c -4.61,-0.4688 -6.33,-0.6289 -6.88,-3.6797 -0.39,-1.75 -0.43,-5.8203 -0.43,-9.1406 v -7.5704 c 4.73,-0.2812 8.05,-0.3906 12.66,-0.3906 4.65,0 8.36,0.1094 13.05,0.3906 v 9.211 c -0.08,10.039 -0.16,10.4687 -7.66,11.1797 v 2.9297 h 23.87 v -2.9297 c -6.41,-0.7813 -6.41,-0.8594 -6.41,-11.3321 V 27.6602 c 0,-2.1485 0.08,-9.1094 0.35,-10.75 0.35,-2.8907 2.03,-3.4297 6.06,-3.8204 v -2.9687 h -23.87 v 2.9687 c 5.55,0.6211 7.03,0.7813 7.5,4.5704 0.16,1.6015 0.16,3.6679 0.16,7.6484 v 10.1211 c -4.38,0.1211 -8.01,0.3516 -12.54,0.3516 -4.77,0 -8.44,-0.1211 -13.21,-0.3516 V 25.3086 c 0.08,-11.4375 0.24,-11.4375 7.35,-12.2188 v -2.9687 h -23.6 z m 67.93,0 v 2.9296 c 5.39,0.7383 6.49,1.3204 6.57,7.1094 v 29.3321 c -0.08,11.4101 -0.08,11.7578 -6.57,12.6992 v 2.9297 h 22.89 v -2.9297 c -6.44,-0.6289 -6.44,-0.9414 -6.44,-12.6992 V 27.2695 c 0,-1.9179 0.08,-8.0898 0.19,-9.7304 0.39,-3.3594 1.96,-4.1407 6.25,-4.4493 v -2.9296 z m -156.79,0 v 2.9296 c 5.39,0.7383 6.48,1.3204 6.56,7.1094 v 29.3321 c -0.08,11.4101 -0.08,11.7578 -6.56,12.6992 v 2.9297 h 22.85 v -2.9297 c -6.49,-0.6289 -6.49,-0.9414 -6.49,-12.6992 V 27.2695 c 0,-1.9179 0.12,-8.0898 0.28,-9.7304 0.35,-3.3594 1.91,-4.1407 6.21,-4.4493 v -2.9296 z m -34.65,0 v 2.9296 c 6.91,0.461 6.91,0.7813 6.99,10.9688 V 51.7617 L 1216.56,9.44922 h -4.84 l -17.66,42.85158 -0.43,-32.3399 c 0,-5.3906 0.63,-6.4101 6.49,-6.8711 v -2.9296 h -19.1 v 2.9296 c 4.45,0.2696 6.17,0.8594 6.44,4.5704 0.16,1.4804 0.43,6.1289 0.47,9.1796 l 0.78,23.0391 c 0.08,1.8008 0.08,4.4609 0.08,6.4102 0,5.4726 -1.09,5.8593 -5.98,5.9414 v 2.9297 h 17.31 l 17.15,-41.7618 18.86,41.7618 h 16.76 v -3.25 c -6.56,-0.3907 -6.64,-1.0899 -6.56,-9.6797 V 29.5703 c 0,-3.789 0.08,-8.4414 0.31,-11.25 0.31,-4.0586 1.88,-4.8008 6.25,-5.2305 v -2.9296 z m 340.12,0 v 2.9296 c 4.53,0.2696 6.25,0.3086 6.87,3.4297 0.78,3.6797 1.02,36.3321 1.09,42.0313 -3.04,2.8203 -4.29,3.3594 -7.96,3.6797 v 2.9297 h 16.52 c 4.61,-6.5704 5.62,-8.0118 13.75,-18.0508 l 15.35,-19.0196 v 24.6407 c -0.08,8.7187 -0.31,9.1797 -9.06,9.5 v 2.9297 h 21.72 v -2.9297 c -6.06,-0.0821 -6.57,-1.3321 -6.64,-10.3203 L 1619.8,9.44922 h -3.28 l -4.92,6.14058 c -2.46,3.1211 -5,6.25 -7.46,9.2891 l -21.76,26.8008 V 23.1602 c 0,-8.8985 0.59,-9.211 9.03,-10.0704 v -2.9296 z m -459.22,27.5703 c 0,-19.0196 -12.93,-29.01956 -27.54,-29.01956 -16.02,0 -28.52,11.55856 -28.52,29.09766 0,15.043 10.08,28.6406 27.74,28.5195 16.71,-0.039 28.32,-11.9179 28.32,-28.5976 z m -27.5,-23.9414 c 3.12,0.1211 7.54,1.6406 10.93,6.8007 3.87,5.9688 4.69,11.4805 4.46,18.629 -0.24,7.0703 -2.19,13.2031 -6.25,17.5 -1.76,1.9101 -5.24,4.6914 -9.85,4.5312 -4.61,0 -8,-2.8906 -9.72,-4.8008 -3.91,-4.4609 -5.67,-10.6289 -5.67,-17.6992 0,-7.1914 0.94,-12.6602 5,-18.4805 3.56,-5.0703 7.97,-6.4804 11.1,-6.4804 z m 33.04,-0.6289 v -3 h 22.82 v 3 c -5.71,0.5507 -6.41,1.1015 -6.61,7.1093 l 0.08,15.711 h 6.1 c 6.13,0 9.41,-0.5899 9.76,-6.7617 h 2.7 v 18.1601 h -2.7 c -0.27,-5.8984 -1.91,-6.5195 -8.63,-6.5195 h -7.23 v 19.1015 c 1.96,0.2383 3.05,0.2696 6.53,0.2696 10.78,0 14.21,0.039 15.7,-8.5508 h 2.73 l -0.9,13.4805 h -40.35 v -2.9297 c 3.95,-0.4297 5.71,-0.6719 6.25,-3.211 0.39,-1.7187 0.47,-7.8086 0.47,-10 v -19.289 c 0,-1.5313 -0.11,-8.1719 -0.19,-9.461 -0.16,-6.0078 -0.82,-6.5586 -6.53,-7.1093 z M 642.148,10.5117 v 2.9688 c 5.391,0.6992 6.442,1.3203 6.524,7.1093 v 29.2891 c -0.082,11.4922 -0.082,11.8008 -6.524,12.6992 v 2.9727 H 665 v -2.9727 c -6.449,-0.6289 -6.449,-0.8984 -6.449,-12.6992 V 27.6602 c 0,-1.9219 0.039,-8.1289 0.238,-9.7305 0.352,-3.3594 1.91,-4.1406 6.211,-4.4492 v -2.9688 z m 242.5,0 v 2.9688 c 5.352,0.6992 6.442,1.3203 6.524,7.1093 v 29.2891 c -0.082,11.4922 -0.082,11.8008 -6.524,12.6992 v 2.9727 h 22.813 V 62.5781 C 900.98,61.9492 900.98,61.6797 900.98,49.8789 V 27.6602 c 0,-1.9219 0.071,-8.1289 0.231,-9.7305 0.391,-3.3594 1.949,-4.1406 6.25,-4.4492 v -2.9688 z m -309.527,0 v 2.9688 c 4.527,0.2304 6.207,0.3086 6.867,3.4297 0.782,3.6796 1.024,36.3281 1.063,42.039 -3.012,2.7696 -4.262,3.3516 -7.93,3.6289 v 2.9727 h 16.52 c 4.609,-6.5313 5.629,-8.0117 13.711,-18.0899 l 15.347,-19.0195 v 24.6484 c -0.039,8.711 -0.269,9.211 -9.019,9.4883 v 2.9727 h 21.64 v -2.9727 c -5.98,-0.039 -6.519,-1.3281 -6.601,-10.2773 L 625.941,9.80078 h -3.242 l -4.929,6.17972 c -2.5,3.1211 -5,6.2109 -7.5,9.25 L 588.551,52.0703 V 23.5195 c 0,-8.8711 0.59,-9.1797 9.027,-10.039 v -2.9688 z m 264.02,17.1485 2.808,0.3086 c 3.012,-8.9493 8.09,-13.7891 16.371,-13.7891 5.821,0 10.981,2.5 10.981,8.4414 0,6.25 -5.981,8.707 -8.641,9.8008 -2.18,0.8594 -4.531,1.5586 -6.711,2.4179 -4.539,1.6407 -13.008,5.1602 -13.008,15.8204 0,10.2812 8.079,16.1015 17.539,16.1015 3.668,0 7.93,-0.8203 12.61,-3.7929 l 3.359,2.4218 1.801,-16.3711 -2.73,-0.539 c -0.942,3.5898 -1.641,5.2695 -3.829,8.1601 -2.66,3.4375 -6.371,5.0391 -10.742,5.0391 -5.859,0 -9.301,-2.8086 -9.301,-7.1914 0,-6.5195 6.481,-8.75 12.653,-10.7383 3.129,-1.0508 5.668,-1.9102 7.929,-3.1992 4.379,-2.582 7.969,-7.4297 7.969,-14.0313 0,-9.5312 -7.808,-17.41794 -19.41,-17.41794 -7.461,0 -12.109,2.96874 -14.258,4.37894 l -4.57,3.3203 z m 90.468,-17.1485 v 2.3399 c 5.082,0.0781 6.481,1.9492 6.481,6.289 v 40.5899 h -6.828 c -6.25,0 -10.352,0.2304 -10.864,-9.5703 h -2.847 l 0.469,15.3906 h 50 l 0.46,-15.3906 h -2.929 c -0.461,9.8007 -4.571,9.5703 -10.781,9.5703 h -6.872 V 19.1406 c 0,-4.3398 1.403,-6.2109 6.442,-6.289 V 10.5117 Z M 533.012,65.5508 V 62.5781 C 525.66,62.0703 525.66,61.8008 525.59,50.1211 V 37.1914 c 0,-6.7226 0.148,-12.5 3.672,-17.6601 2.808,-4.0625 7.617,-4.6094 10.039,-4.6094 7.847,0 12.179,4.0976 14.097,10.5898 1.524,5.1094 1.602,14.7969 1.602,21.168 0,2.0312 0,8.5898 -0.078,10.3906 -0.313,5 -2.891,5.1602 -7.813,5.5078 v 2.9727 h 20.981 v -2.9727 c -5.121,0.1211 -6.25,-1.0586 -6.531,-6.5273 -0.079,-1.3203 -0.7,-16.6016 -0.778,-18.9414 -0.16,-4.1797 -0.429,-8.3594 -1.332,-12.3399 -3.75,-14.80856 -18.16,-15.58981 -21.988,-15.58981 -3.051,0 -9.301,0.46875 -14.41,3.91011 -8.211,5.5391 -8.281,13.7891 -8.281,22.6915 v 12.457 c -0.079,5.9414 -0.079,8.6015 -0.239,10 -0.472,3.4414 -2.191,4.1015 -6.332,4.3398 v 2.9727 z m 195.109,0 v -2.9727 c -5.269,-0.7773 -6.012,-2.2265 -10.5,-13.1679 L 700.82,9.44922 h -2.968 L 682.809,50.0391 c -3.707,10.4726 -4.219,11.7226 -9.719,12.539 v 2.9727 h 26.09 v -2.9727 c -4.41,-0.1172 -7.301,-0.2773 -7.301,-3.4765 0,-1.5625 0.391,-2.8907 1.871,-7.5 l 9.57,-28.0118 11.211,28.9883 c 0.699,1.9102 1.641,4.4102 1.641,5.8203 0,3.9414 -3.871,4.1407 -7.344,4.1797 v 2.9727 z M 989.059,10.5117 v 2.9688 c 4.339,0.4687 5.98,0.6211 7.031,1.7187 1.289,1.25 1.289,2.6524 1.332,8.6289 v 9.6914 l -14.613,22.6524 c -3.981,5.9375 -4.059,6.0976 -9.329,6.4062 v 3.043 h 28.63 v -3.043 c -5.782,-0.1562 -8.36,-0.2773 -8.36,-2.9297 0,-1.4882 1.02,-3.1992 2.422,-5.5468 l 8.438,-13.793 7.77,13.7109 c 1.41,2.7422 2.19,4.3399 2.19,5.6289 0,2.6524 -2.27,2.6914 -6.09,2.9297 v 3.043 h 21.48 v -3.043 c -5.55,-0.1562 -7.15,-1.7968 -13.44,-12.0664 l -8.59,-14.3398 V 24.6914 c 0,-9.9609 0.08,-10.7422 8.24,-11.1719 v -3.0078 z m -213.75,0 c 0,3.9766 0.671,10.5078 1.14,14.2578 h -2.66 c -1.879,-9.8086 -7.379,-9.3398 -15.348,-9.3398 -7.351,0 -8.793,1.9492 -8.793,5.5508 v 15.3906 h 5.903 c 6.789,0 8.75,-0.5898 8.75,-6.7617 h 2.609 v 18.1601 h -2.609 c -0.551,-4.8789 -1.571,-6.4804 -8.68,-6.4804 h -5.973 v 19.3711 h 6.762 c 9.371,0 12.692,-0.6993 13.981,-8.1602 h 2.461 l -0.313,13.0508 H 733.32 v -2.9297 c 3.981,-0.3906 5.7,-0.6328 6.25,-3.2422 0.391,-1.6797 0.43,-7.7383 0.43,-9.9297 V 30.0781 c 0,-1.4883 -0.039,-8.0898 -0.121,-9.4179 -0.149,-6.0118 -0.859,-6.5586 -6.559,-7.1094 v -3.0391 z m 728.951,23.9375 v -2.9687 c -5,-0.2696 -5,-1.711 -5.16,-12.1407 v -4.1406 c -4.26,-2.6601 -10.39,-6.48826 -21.17,-6.48826 -18.95,0 -28.01,14.37886 -28.01,28.78906 0,17.6211 11.92,29.1016 26.88,29.1016 9.41,0 14.84,-3.5118 19.29,-6.25 l 2.89,3.2773 0.43,-17.2187 -2.22,-0.3907 c -1.17,3.2422 -2.85,7.0313 -6.99,11.1719 -1.84,1.7891 -5.32,4.0977 -10.9,4.0977 -9.57,0 -17.58,-8.0899 -17.58,-23.9493 0,-12.6484 6.25,-23.4687 16.95,-23.4687 6.13,0 9.26,4.2891 9.57,4.6094 0.98,1.4804 1.21,2.8086 1.14,5.2304 -0.28,7.0274 -1.22,7.1485 -7.31,7.7696 v 2.9687 z m -703.401,5.5899 c 1.481,-0.3086 3.59,-0.5508 5.161,-0.5508 6.25,-0.0391 10.968,4.8906 11.21,9.3008 0.348,6.3711 -2.89,11.9101 -13.011,11.9101 -1.41,0 -2.27,-0.0781 -3.36,-0.3086 z m 0,-11.9883 c 0.082,-12.6211 0.082,-14.3399 6.719,-14.5 V 10.5117 H 784.57 v 3.0391 c 5.942,0.4687 6.559,1.4101 6.641,7.3476 0.078,2.2618 0.078,4.8399 0.078,7.0704 v 19.9218 c 0,6.5977 -0.078,8.9492 -0.309,10.7383 -0.39,3.0508 -1.878,3.6016 -6.41,3.9922 v 2.9297 l 24.961,-0.0391 c 13.559,0 17.848,-6.4922 17.848,-14.1406 0,-5.3203 -3.277,-12.1914 -10.859,-14.5313 l 9.769,-16.9609 c 3.512,-6.4805 5.391,-7.9687 9.84,-8.5898 V 9.44922 C 834.922,9.33984 833.75,9.30078 832.5,9.30078 c -10.352,0 -14.648,3.55082 -19.02,12.84762 l -3.011,6.4414 c -3.278,6.961 -4.379,6.5313 -9.571,6.6094 v -7.1484 z" /><path
         id="path20"
         style="fill:#00274c;fill-opacity:1;fill-rule:nonzero;stroke:none"
         d="m 597.148,103.52 c -1.058,2.378 -1.878,5.152 -2.457,8.32 -0.632,3.121 -1.062,6.441 -1.371,9.879 l -1.332,25 c -0.308,5.98 -0.898,10.941 -1.828,14.84 -0.898,3.91 -2.39,7.113 -4.5,9.652 -2.07,2.578 -5.148,4.379 -9.211,5.43 -4.07,1.019 -9.148,1.558 -15.32,1.558 H 542.27 V 103.52 h -20.942 v 162.421 h 58.512 c 2.82,0 6.371,-0.511 10.551,-1.562 4.218,-1.059 8.199,-3.09 11.949,-6.098 3.75,-2.972 7.039,-7.109 9.89,-12.34 2.848,-5.281 4.25,-12.031 4.25,-20.281 0,-10.191 -2.531,-18.512 -7.609,-24.961 -5.121,-6.437 -12.461,-10.66 -22.07,-12.609 4.961,-0.75 9.058,-2 12.379,-3.828 3.281,-1.801 5.941,-4.262 7.851,-7.422 1.949,-3.129 3.399,-6.879 4.297,-11.25 0.902,-4.34 1.481,-9.379 1.793,-15.078 l 0.238,-5.821 c 0.27,-7.07 0.821,-13.953 1.563,-20.711 0.738,-6.75 2.027,-13.589 3.828,-20.46 z m -1.796,119.449 c 0,6.91 -1.211,12.07 -3.59,15.551 -2.422,3.429 -5.282,5.82 -8.563,7.179 -3.32,1.332 -6.359,2.11 -9.219,2.27 -2.851,0.121 -4.878,0.121 -6.089,0 H 542.27 v -52.231 h 24.058 c 1.953,0 4.492,0.16 7.652,0.473 3.129,0.269 6.372,1.25 9.649,2.93 3.32,1.64 6.019,4.339 8.133,8.089 2.109,3.75 3.277,8.981 3.59,15.739 z" /><path
         id="path22"
         style="fill:#00274c;fill-opacity:1;fill-rule:nonzero;stroke:none"
         d="m 748.121,180.66 c 0,-10.191 -0.312,-20 -0.891,-29.449 -0.589,-9.449 -2.539,-18.012 -5.859,-25.66 -3.281,-7.66 -8.48,-13.641 -15.512,-18.012 -7.07,-4.34 -17.109,-6.598 -30.16,-6.758 -10.187,0 -18.508,1.68 -24.961,4.957 -6.476,3.321 -11.476,7.973 -15.078,13.953 -3.629,6.008 -6.172,12.848 -7.648,20.469 -1.532,7.649 -2.192,15.969 -2.032,25 v 36.871 c 0,9.02 0.43,17.66 1.36,25.899 0.898,8.242 3.129,15.429 6.719,21.601 3.601,6.129 8.711,11.09 15.32,14.848 6.601,3.742 15.742,5.621 27.461,5.621 11.832,0 21.211,-2.031 28.121,-6.09 6.879,-4.031 11.988,-9.422 15.269,-16.18 3.321,-6.75 5.508,-14.64 6.532,-23.628 1.047,-8.981 1.519,-18.243 1.359,-27.692 z m -21.133,18.25 c 0,5.699 -0.078,11.68 -0.226,18 -0.16,6.289 -1.141,12.07 -2.934,17.309 -1.797,5.269 -4.726,9.531 -8.789,12.812 -4.019,3.321 -10.117,5.039 -18.199,5.199 -10.36,0 -17.86,-3.089 -22.5,-9.218 -4.649,-6.172 -7.07,-16.371 -7.231,-30.633 v -48.117 c 0,-8.403 0.551,-15.551 1.602,-21.371 1.059,-5.86 2.699,-10.59 4.918,-14.18 2.269,-3.59 5.351,-6.25 9.262,-7.891 3.871,-1.64 8.48,-2.461 13.711,-2.461 7.347,0 13.046,1.172 17.109,3.59 4.019,2.391 7.027,5.942 8.988,10.59 1.949,4.652 3.16,10.43 3.59,17.301 0.473,6.922 0.699,15 0.699,24.301 z" /><path
         id="path24"
         style="fill:#00274c;fill-opacity:1;fill-rule:nonzero;stroke:none"
         d="m 886.949,149.18 c 0,-9.45 -1.359,-17.11 -4.058,-22.969 -2.692,-5.82 -6.52,-10.473 -11.481,-13.941 -4.93,-3.442 -10.469,-5.79 -16.64,-6.961 -6.141,-1.207 -12.891,-1.789 -20.239,-1.789 h -48.402 v 162.421 h 53.793 c 6.168,0 11.797,-0.82 16.879,-2.461 5.109,-1.64 9.527,-4.14 13.277,-7.429 3.75,-3.321 6.602,-7.34 8.551,-12.141 1.961,-4.808 3.012,-10.359 3.133,-16.64 0,-21.02 -9.301,-33.68 -27.891,-38.051 v -1.129 c 11.25,-1.488 19.57,-5.391 25,-11.68 5.391,-6.289 8.078,-15.39 8.078,-27.23 z m -25.859,73.55 c 0,6.329 -1.129,11.18 -3.391,14.649 -2.23,3.441 -5.039,5.98 -8.32,7.66 -3.289,1.641 -6.758,2.621 -10.359,2.93 -3.59,0.269 -6.911,0.429 -9.879,0.429 H 807.07 V 197.34 h 21.371 c 3.59,0 7.34,0.121 11.25,0.43 3.899,0.32 7.418,1.289 10.579,2.929 3.171,1.641 5.71,4.18 7.66,7.66 1.949,3.442 3.011,8.243 3.16,14.371 z m 4.691,-71.992 c 0,5.864 -1.332,11.25 -4.019,16.211 -2.703,4.961 -7.071,8.403 -13.051,10.352 -3.16,0.898 -6.992,1.488 -11.481,1.801 -4.5,0.308 -9.691,0.429 -15.511,0.429 H 807.07 V 121.48 h 13.711 c 5.699,0 11.25,0.161 16.68,0.469 5.391,0.321 10.199,1.41 14.379,3.36 4.211,1.961 7.57,4.812 10.148,8.562 2.543,3.75 3.793,9.367 3.793,16.867 z" /><path
         id="path26"
         style="fill:#00274c;fill-opacity:1;fill-rule:nonzero;stroke:none"
         d="m 1023.09,180.66 c 0,-10.191 -0.32,-20 -0.9,-29.449 -0.63,-9.449 -2.58,-18.012 -5.86,-25.66 -3.32,-7.66 -8.48,-13.641 -15.55,-18.012 -7.03,-4.34 -17.069,-6.598 -30.12,-6.758 -10.191,0 -18.551,1.68 -25,4.957 -6.441,3.321 -11.441,7.973 -15.07,13.953 -3.602,6.008 -6.141,12.848 -7.621,20.469 -1.52,7.649 -2.188,15.969 -2.028,25 v 36.871 c 0,9.02 0.43,17.66 1.329,25.899 0.89,8.242 3.16,15.429 6.75,21.601 3.601,6.129 8.71,11.09 15.32,14.848 6.601,3.742 15.738,5.621 27.422,5.621 11.867,0 21.25,-2.031 28.117,-6.09 6.921,-4.031 12.031,-9.422 15.321,-16.18 3.32,-6.75 5.46,-14.64 6.52,-23.628 1.05,-8.981 1.52,-18.243 1.37,-27.692 z m -21.18,18.25 c 0,5.699 -0.07,11.68 -0.19,18 -0.16,6.289 -1.13,12.07 -2.931,17.309 -1.801,5.269 -4.73,9.531 -8.789,12.812 -4.059,3.321 -10.121,5.039 -18.238,5.199 -10.352,0 -17.852,-3.089 -22.5,-9.218 -4.653,-6.172 -7.032,-16.371 -7.192,-30.633 v -48.117 c 0,-8.403 0.551,-15.551 1.559,-21.371 1.062,-5.86 2.742,-10.59 4.961,-14.18 2.269,-3.59 5.32,-6.25 9.219,-7.891 3.91,-1.64 8.48,-2.461 13.75,-2.461 7.351,0 13.05,1.172 17.07,3.59 4.07,2.391 7.07,5.942 9.031,10.59 1.949,4.652 3.12,10.43 3.59,17.301 0.47,6.922 0.66,15 0.66,24.301 z" /><path
         id="path28"
         style="fill:#00274c;fill-opacity:1;fill-rule:nonzero;stroke:none"
         d="M 1107.46,247.969 V 103.52 h -20.94 v 144.449 h -42.54 v 17.972 h 106.22 v -17.972 z" /><path
         id="path30"
         style="fill:#00274c;fill-opacity:1;fill-rule:nonzero;stroke:none"
         d="m 1174.26,103.52 h 20.9375 V 265.942 H 1174.26 Z" /><path
         id="path32"
         style="fill:#00274c;fill-opacity:1;fill-rule:nonzero;stroke:none"
         d="m 1329.3,149.609 c 0,-16.488 -4.07,-28.711 -12.15,-36.64 -8.09,-7.969 -20.31,-11.949 -36.68,-11.949 -8.09,0 -14.92,1.128 -20.47,3.39 -5.55,2.231 -10.12,5.32 -13.71,9.219 -3.63,3.91 -6.33,8.402 -8.13,13.48 -1.79,5.121 -3.2,10.661 -4.25,16.68 -1.06,5.981 -1.57,11.992 -1.57,17.973 0,6.008 -0.07,12.148 -0.23,18.468 v 22.5 c 0,9.149 0.59,17.7 1.8,25.629 1.21,7.969 3.67,14.879 7.42,20.7 3.75,5.863 8.98,10.429 15.74,13.75 6.76,3.281 15.74,4.921 26.99,4.921 14.73,0 25.59,-3.429 32.66,-10.351 7.03,-6.867 10.55,-17.848 10.55,-32.848 v -4.691 h -21.61 v 2.699 c 0,4.18 -0.27,8.012 -0.89,11.441 -0.59,3.481 -1.88,6.411 -3.83,8.79 -1.96,2.39 -4.34,4.218 -7.19,5.39 -2.85,1.219 -6.68,1.879 -11.48,2.039 -7.35,0 -12.97,-1.488 -16.88,-4.5 -3.91,-3 -6.8,-6.828 -8.75,-11.48 -1.95,-4.649 -2.93,-9.879 -2.93,-15.739 0,-5.859 -0.16,-11.64 -0.47,-17.351 v -34.41 c 0,-8.707 0.47,-16.059 1.37,-22.028 0.9,-6.019 2.54,-10.98 4.92,-14.851 2.42,-3.899 5.27,-6.68 8.56,-8.36 3.32,-1.64 7.57,-2.531 12.85,-2.691 17.69,0 26.68,11.332 26.99,33.981 h 21.37 z" /><path
         id="path34"
         style="fill:#00274c;fill-opacity:1;fill-rule:nonzero;stroke:none"
         d="m 1452.62,144.691 c 0,-6.761 -1.14,-12.781 -3.4,-18.011 -2.23,-5.27 -5.63,-9.84 -10.12,-13.711 -4.49,-3.91 -9.84,-6.84 -15.98,-8.789 -6.13,-1.95 -13.04,-3.008 -20.7,-3.16 -15.58,0 -27.46,3.82 -35.54,11.48 -8.09,7.66 -12.23,18.91 -12.39,33.75 v 6.988 h 20.47 v -4.527 c 0,-9.301 2.5,-16.563 7.42,-21.801 4.96,-5.269 11.8,-7.961 20.51,-8.121 8.52,0 15.43,2.34 20.7,6.992 5.24,4.649 7.86,10.938 7.86,18.91 0,5.7 -1.72,10.618 -5.16,14.84 -3.48,4.18 -7.66,7.578 -12.62,10.117 l -22.93,12.153 c -11.4,6.008 -19.65,12.461 -24.76,19.328 -5.12,6.922 -7.66,15.082 -7.66,24.531 0,13.52 4.34,24.11 13.05,31.719 8.71,7.66 20.54,11.492 35.54,11.492 14.57,0 25.59,-3.672 33.09,-11.019 7.5,-7.34 11.25,-18.321 11.25,-32.852 v -3.59 h -21.6 v 2.93 c 0,8.238 -1.95,14.68 -5.86,19.332 -3.91,4.648 -10.12,7.066 -18.67,7.187 -8.09,0 -14.38,-1.988 -18.91,-6.058 -4.49,-4.063 -6.72,-9.84 -6.72,-17.34 0,-4.18 0.9,-7.93 2.7,-11.25 1.79,-3.281 4.18,-6.211 7.19,-8.75 3,-2.582 6.21,-4.801 9.68,-6.762 3.44,-1.949 6.96,-3.668 10.55,-5.187 6.01,-2.703 11.05,-5.391 15.08,-8.09 4.06,-2.692 6.68,-4.57 7.89,-5.621 7.34,-5.86 12.54,-11.492 15.51,-16.879 3,-5.391 4.53,-12.152 4.53,-20.231 z" /></g></g></svg>